<svg xmlns="http://www.w3.org/2000/svg" viewBox="0 0 409.53 142.78"><defs><style>.cls-1{fill:#4366b0;}.cls-2{fill:#fff;}.cls-3{font-size:108.65px;fill:#f37321;font-family:Outfit-SemiBold, Outfit;font-weight:600;}.cls-4{letter-spacing:-0.01em;}</style></defs><g id="Layer_2" data-name="Layer 2"><g id="Layer_1-2" data-name="Layer 1"><path class="cls-1" d="M50.62,0H6.77A6.54,6.54,0,0,0,0,6.28V106.83a6.54,6.54,0,0,0,6.77,6.28H84a6.54,6.54,0,0,0,6.77-6.28V37.31A6.54,6.54,0,0,0,84,31H64.16a6.54,6.54,0,0,1-6.77-6.28V6.28A6.54,6.54,0,0,0,50.62,0Z"/><path class="cls-1" d="M90.77,26.14H69.1a6.28,6.28,0,0,1-6.5-6V0Z"/><rect class="cls-2" x="10.13" y="20.18" width="35.63" height="5.96" rx="2.3"/><rect class="cls-2" x="10.13" y="92.59" width="68.2" height="5.96" rx="2.3"/><rect class="cls-2" x="10.13" y="74.49" width="68.2" height="5.96" rx="2.3"/><rect class="cls-2" x="10.13" y="56.38" width="68.2" height="5.96" rx="2.3"/><rect class="cls-2" x="10.13" y="38.28" width="68.2" height="5.96" rx="2.3"/><text class="cls-3" transform="translate(103.68 101.28)">C<tspan class="cls-4" x="74.53" y="0">PP</tspan><tspan x="206.87" y="0">IB</tspan></text></g></g></svg>