<svg xmlns="http://www.w3.org/2000/svg" viewBox="0 0 204.49 67.46"><defs><style>.cls-1{fill:#a9a8a9;}.cls-2{font-size:46.7px;fill:#cf1f4a;font-family:Outfit-Black, Outfit;font-weight:800;}.cls-3{letter-spacing:-0.01em;}.cls-4{letter-spacing:0em;}</style></defs><g id="Layer_2" data-name="Layer 2"><g id="Layer_1-2" data-name="Layer 1"><path class="cls-1" d="M45.39,13.07H34.55a3.14,3.14,0,0,1-3.25-3V0Z"/><path class="cls-1" d="M42,15.52H32.08a3.27,3.27,0,0,1-3.38-3.14V3.14A3.28,3.28,0,0,0,25.31,0H3.38A3.27,3.27,0,0,0,0,3.14V53.42a3.27,3.27,0,0,0,3.38,3.14H42a3.28,3.28,0,0,0,3.39-3.14V18.66A3.27,3.27,0,0,0,42,15.52ZM36.44,47.77a1.87,1.87,0,0,1-1.86,1.86H10.81A1.86,1.86,0,0,1,9,47.77v-2.2a1.86,1.86,0,0,1,1.86-1.86H34.58a1.87,1.87,0,0,1,1.86,1.86Zm0-11.28a1.86,1.86,0,0,1-1.86,1.85H10.81A1.85,1.85,0,0,1,9,36.49v-2.2a1.86,1.86,0,0,1,1.86-1.86H34.58a1.86,1.86,0,0,1,1.86,1.86Zm0-11.28a1.86,1.86,0,0,1-1.86,1.85H10.81A1.85,1.85,0,0,1,9,25.21V23a1.86,1.86,0,0,1,1.86-1.86H34.58A1.86,1.86,0,0,1,36.44,23Z"/><text class="cls-2" transform="translate(57.95 47.42) scale(1.06 1)">C<tspan class="cls-3" x="32.46" y="0">PP</tspan><tspan class="cls-4" x="92.8" y="0">IB</tspan></text></g></g></svg>